Coordinates
version=1
nRows=29
nColumns=22
inDegrees=yes

Units are S.I. units (second, meters, Newtons, ...)
If the header above contains a line with 'inDegrees', this indicates whether rotational values are in degrees (yes) or radians (no).

endheader
time	pelvis_tilt	pelvis_list	pelvis_rotation	pelvis_tx	pelvis_ty	pelvis_tz	hip_flexion_r	hip_adduction_r	hip_rotation_r	knee_angle_r	ankle_angle_r	subtalar_angle_r	hip_flexion_l	hip_adduction_l	hip_rotation_l	knee_angle_l	ankle_angle_l	subtalar_angle_l	lumbar_extension	lumbar_bending	lumbar_rotation
      1.84000000	     -1.99679073	     -3.43034807	    -29.61216448	     -0.94181016	      0.90853762	     -0.43428918	      8.62829286	      1.57917025	      3.66386803	    -24.23440859	     14.93671243	     -1.32301153	      5.06243491	     -2.84154490	    -13.85353729	    -21.23759866	     17.81072488	     -7.60799643	    -10.61658145	      1.47478880	      5.93979026
      1.85000000	     -1.89872031	     -3.54781971	    -29.59898790	     -0.94119633	      0.90871061	     -0.43518154	      9.27744226	      1.64105530	      3.55340319	    -25.57487810	     14.82202539	     -1.57629180	      4.92191077	     -2.80186244	    -13.76067712	    -21.26169523	     17.86603532	     -7.77989328	    -10.84546175	      1.51224817	      5.82481092
      1.86000000	     -1.78004172	     -3.65488382	    -29.54540095	     -0.94046695	      0.90888902	     -0.43605714	      9.88257223	      1.66259595	      3.36867671	    -26.83448431	     14.73819972	     -1.86065818	      4.75246891	     -2.74055563	    -13.65374792	    -21.26316542	     17.92477495	     -7.91712771	    -11.07364560	      1.53776507	      5.67758064
      1.87000000	     -1.65758929	     -3.75407058	    -29.45344164	     -0.93961005	      0.90906104	     -0.43690647	     10.44786933	      1.65187045	      3.10028237	    -27.98653216	     14.69608649	     -2.21365074	      4.56837583	     -2.66902692	    -13.53089803	    -21.24498532	     17.97572381	     -8.04893447	    -11.28319732	      1.56381568	      5.50700281
      1.88000000	     -1.53039435	     -3.84970501	    -29.32594096	     -0.93864064	      0.90923789	     -0.43774468	     10.96235596	      1.61075679	      2.76102075	    -29.00520163	     14.69967979	     -2.63448839	      4.36820121	     -2.59031456	    -13.38938695	    -21.20806415	     18.01575998	     -8.17982751	    -11.48271707	      1.59687951	      5.31532784
      1.89000000	     -1.40357921	     -3.94469022	    -29.16906679	     -0.93756251	      0.90942452	     -0.43854347	     11.42323483	      1.54564425	      2.35377407	    -29.87145112	     14.74488601	     -3.12925279	      4.15178316	     -2.51257616	    -13.23370516	    -21.15161113	     18.04196770	     -8.32162363	    -11.66536524	      1.63811408	      5.10708603
      1.90000000	     -1.29457364	     -4.05737018	    -29.00183963	     -0.93639017	      0.90962426	     -0.43928276	     11.82478737	      1.49079487	      1.91282467	    -30.55339382	     14.81397816	     -3.83806896	      3.92944412	     -2.47221079	    -13.12530126	    -21.08738362	     18.05526468	     -8.53438389	    -11.82635142	      1.71732043	      4.90919890
      1.91000000	     -1.16933523	     -4.15670203	    -28.80653133	     -0.93512428	      0.90984491	     -0.44000989	     12.16736438	      1.39268456	      1.42870740	    -31.08190042	     14.91208050	     -4.37919211	      3.67637452	     -2.40306737	    -12.96665498	    -20.98692609	     18.05368939	     -8.67170903	    -11.98679739	      1.78355853	      4.69309107
      1.92000000	     -1.04481330	     -4.25238553	    -28.60281034	     -0.93381275	      0.91007774	     -0.44068948	     12.46067984	      1.28470776	      0.94219603	    -31.44656804	     15.02934785	     -4.97370775	      3.41647751	     -2.33574147	    -12.81042953	    -20.87816297	     18.06330058	     -8.81754531	    -12.14080788	      1.85191494	      4.48206963
      1.93000000	     -0.93236612	     -4.35170735	    -28.39288268	     -0.93242391	      0.91031467	     -0.44131240	     12.70892234	      1.17854593	      0.44443768	    -31.64726072	     15.15770531	     -5.54055797	      3.14617464	     -2.28193673	    -12.66556164	    -20.74417735	     18.05038271	     -8.94418385	    -12.27146180	      1.93700459	      4.28276648
      1.94000000	     -0.82022454	     -4.42331519	    -28.18311825	     -0.93101549	      0.91052638	     -0.44189624	     12.94728846	      1.03934101	     -0.05978522	    -31.73472591	     15.28802533	     -5.84116377	      2.88278196	     -2.20654076	    -12.52944225	    -20.60126669	     18.04854177	     -8.98532492	    -12.38558262	      1.99835448	      4.07660886
      1.95000000	     -0.72995739	     -4.53870411	    -28.00334575	     -0.92958377	      0.91078644	     -0.44234921	     13.11582799	      0.97267505	     -0.50992102	    -31.62700571	     15.42083907	     -6.58960563	      2.59252887	     -2.19323473	    -12.42828177	    -20.43047033	     18.03066304	     -9.12316093	    -12.49523952	      2.10878196	      3.96648416
      1.96000000	     -0.65229952	     -4.60897667	    -27.82727715	     -0.92812914	      0.91099041	     -0.44276906	     13.30019952	      0.86569615	     -0.96404377	    -31.42137480	     15.53886877	     -6.92208938	      2.32904957	     -2.14372916	    -12.32764869	    -20.24733346	     18.02174452	     -9.14434354	    -12.56389203	      2.18508410	      3.82963037
      1.97000000	     -0.57240169	     -4.70613227	    -27.69034327	     -0.92671683	      0.91121471	     -0.44307967	     13.45811929	      0.80439780	     -1.35603159	    -31.13011100	     15.63577738	     -7.38621206	      2.03984941	     -2.13170638	    -12.27990086	    -20.06011242	     18.01930539	     -9.16739868	    -12.65719097	      2.28107860	      3.75600859
      1.98000000	     -0.50600995	     -4.76750359	    -27.56389620	     -0.92531175	      0.91138039	     -0.44333030	     13.62981986	      0.71962131	     -1.74563166	    -30.75028929	     15.71782278	     -7.62844671	      1.79462935	     -2.10505002	    -12.27910027	    -19.90379658	     18.03996547	     -9.15400976	    -12.71782106	      2.34361649	      3.68261739
      1.99000000	     -0.44735600	     -4.85507208	    -27.46168120	     -0.92391518	      0.91156556	     -0.44349546	     13.77199065	      0.68633861	     -2.07358624	    -30.27435227	     15.76949564	     -7.90977310	      1.51806803	     -2.10529392	    -12.26123371	    -19.70901140	     18.05351884	     -9.12449963	    -12.78844168	      2.43675350	      3.64408197
      2.00000000	     -0.40067612	     -4.93177925	    -27.37910265	     -0.92255588	      0.91170911	     -0.44358420	     13.92513425	      0.66355551	     -2.36506879	    -29.73885128	     15.80959557	     -8.12543841	      1.26650674	     -2.11015292	    -12.26819245	    -19.53536948	     18.07934856	     -9.08210204	    -12.84660580	      2.51774716	      3.62640072
      2.01000000	     -0.36295004	     -5.00494465	    -27.30409175	     -0.92121467	      0.91182447	     -0.44361671	     14.07958364	      0.65556399	     -2.62096602	    -29.14655253	     15.82045972	     -8.28274822	      1.02747609	     -2.12048974	    -12.27988739	    -19.36963988	     18.10896249	     -9.03411362	    -12.89975592	      2.59901441	      3.60681816
      2.02000000	     -0.33322402	     -5.07301758	    -27.23754183	     -0.91989348	      0.91190857	     -0.44357810	     14.23510274	      0.65864599	     -2.85375139	    -28.50373081	     15.80749965	     -8.37648256	      0.80597984	     -2.13573561	    -12.29136343	    -19.22356506	     18.14409335	     -8.99022253	    -12.94546838	      2.67394456	      3.58835921
      2.03000000	     -0.30569828	     -5.14099414	    -27.16970269	     -0.91857183	      0.91196881	     -0.44350166	     14.38475060	      0.67082164	     -3.06438035	    -27.82088345	     15.76296653	     -8.42304680	      0.59250692	     -2.15532398	    -12.29959825	    -19.09280751	     18.18451538	     -8.95152265	    -12.99487280	      2.75055523	      3.56382797
      2.04000000	     -0.27979932	     -5.20855889	    -27.10280597	     -0.91724322	      0.91200791	     -0.44337404	     14.52659719	      0.69153407	     -3.25646254	    -27.10356504	     15.68593237	     -8.42914773	      0.38469164	     -2.17929078	    -12.30445929	    -18.97369534	     18.22997466	     -8.91918156	    -13.04498477	      2.82643086	      3.53362238
      2.05000000	     -0.24918432	     -5.27768454	    -27.03237126	     -0.91589255	      0.91203030	     -0.44320782	     14.65270794	      0.71545294	     -3.44057347	    -26.35660289	     15.57324682	     -8.39944001	      0.17421297	     -2.20613257	    -12.30898534	    -18.86602949	     18.28273414	     -8.88972749	    -13.10270220	      2.90318773	      3.49763709
      2.06000000	     -0.22013755	     -5.34056200	    -26.96196671	     -0.91451649	      0.91202369	     -0.44300615	     14.77393974	      0.73899728	     -3.61114860	    -25.58745488	     15.43102879	     -8.34022858	     -0.03323921	     -2.22936027	    -12.31532526	    -18.75939940	     18.33909110	     -8.86243725	    -13.15599127	      2.97555411	      3.45795409
      2.07000000	     -0.17013607	     -5.40588811	    -26.88553960	     -0.91308196	      0.91201694	     -0.44274902	     14.86534705	      0.75170295	     -3.81146077	    -24.80980467	     15.27884397	     -8.22412092	     -0.27132454	     -2.25067677	    -12.34572585	    -18.64538613	     18.40779554	     -8.82108112	    -13.22779279	      3.03935196	      3.40069193
      2.08000000	     -0.14060841	     -5.45026140	    -26.80937141	     -0.91166678	      0.91194422	     -0.44246602	     14.97952366	      0.76609609	     -3.96167704	    -24.01628187	     15.08809590	     -8.12795377	     -0.46513237	     -2.26342554	    -12.34509089	    -18.55604164	     18.46558423	     -8.78526814	    -13.27286590	      3.09227131	      3.36726502
      2.09000000	     -0.08313470	     -5.50160828	    -26.71775481	     -0.91015277	      0.91188440	     -0.44214158	     15.05047067	      0.76547916	     -4.16304057	    -23.22175580	     14.91761229	     -7.96816637	     -0.70775424	     -2.27486192	    -12.38084707	    -18.44178306	     18.54078871	     -8.72030237	    -13.34077085	      3.14478373	      3.30050449
      2.10000000	     -0.02986417	     -5.53829199	    -26.62414123	     -0.90864190	      0.91178154	     -0.44175298	     15.12787408	      0.76148640	     -4.34564155	    -22.42848259	     14.73943696	     -7.79900723	     -0.93341553	     -2.28109594	    -12.40549583	    -18.34171764	     18.61037041	     -8.64064496	    -13.39709345	      3.17733117	      3.24511290
      2.11000000	      0.02618175	     -5.56573087	    -26.52251198	     -0.90709683	      0.91164858	     -0.44132797	     15.19883836	      0.75086125	     -4.51909378	    -21.64000800	     14.57040242	     -7.61489559	     -1.15761591	     -2.28058949	    -12.43116153	    -18.24441001	     18.68283668	     -8.54094456	    -13.44870467	      3.20395534	      3.18726320
      2.12000000	      0.06862234	     -5.57811791	    -26.41764482	     -0.90555822	      0.91146051	     -0.44085643	     15.28513837	      0.74225953	     -4.65200523	    -20.86018022	     14.39727147	     -7.47350593	     -1.34936413	     -2.27643150	    -12.43100799	    -18.17171180	     18.75693643	     -8.44981994	    -13.48066693	      3.21897206	      3.15231610
